,
.   http://www.scenetime.com/signup.php  ---&gt;  Hottest scene tracker on the net !!! 
Scenetime lucky draw is started , join now and be the winner . offer is limited 

    Join Now   http://www.scenetime.com/signup.php

    seed back for speed


 



...................................NFO:.................................................[IMG]http://img811.imageshack.us/img811/1433/dragonsa.png[/IMG]


[color=blue][size=4][b]Dragons.Gift.Of.The.Night.Fury.2011.DVDRip.XVID.AC3.HQ.Hive-CM8[/b][/size][/color]


[b] Thx Hive

CM8 Doing it right the first time :D

Source: DVD-R Ignition thx

Encode:
Dvd had great quality, did the usual cleanup for animation and a bit higher bitrate for the fast flying scenes, 
still a 22 min short movie btw.
also got very nice


Video: 720x400 @bitrate 2200 2pass
Audio: English AC3 5.1 @448
Sample: yes included[/b]


[url]http://www.imdb.com/title/tt2065968/[/url]


General
Complete name                  : Dragons.Gift.Of.The.Night.Fury.2011.DVDRip.XVID.AC3.HQ.Hive-CM8.avi
Format                         : AVI
Format/Info                    : Audio Video Interleave
File size                      : 423 MiB
Duration                       : 22mn 12s
Overall bit rate               : 2 662 Kbps
Writing application            : Nandub v1.0rc2
Writing library                : Nandub build 1853/release

Video
ID                             : 0
Format                         : MPEG-4 Visual
Format profile                 : Advanced Simple@L5
Format settings, BVOP          : 2
Format settings, QPel          : Yes
Format settings, GMC           : No warppoints
Format settings, Matrix        : Default (H.263)
Muxing mode                    : Packed bitstream
Codec ID                       : XVID
Codec ID/Hint                  : XviD
Duration                       : 22mn 12s
Bit rate                       : 2 205 Kbps
Width                          : 720 pixels
Height                         : 400 pixels
Display aspect ratio           : 16:9
Frame rate                     : 23.976 fps
Color space                    : YUV
Chroma subsampling             : 4:2:0
Bit depth                      : 8 bits
Scan type                      : Progressive
Compression mode               : Lossy
Bits/(Pixel*Frame)             : 0.319
Stream size                    : 350 MiB (83%)
Writing library                : XviD 1.2.1 (UTC 2008-12-04)

Audio
ID                             : 1
Format                         : AC-3
Format/Info                    : Audio Coding 3
Mode extension                 : CM (complete main)
Codec ID                       : 2000
Duration                       : 22mn 12s
Bit rate mode                  : Constant
Bit rate                       : 448 Kbps
Channel(s)                     : 6 channels
Channel positions              : Front: L C R, Side: L R, LFE
Sampling rate                  : 48.0 KHz
Bit depth                      : 16 bits
Compression mode               : Lossy
Stream size                    : 71.2 MiB (17%)
Alignment                      : Split accross interleaves
Interleave, duration           : 42 ms (1.00 video frame)
Interleave, preload duration   : 500 ms



The Viking town of Berk, now enjoying its new alliance with the dragons, is preparing for its 
annual winter holiday of Snoggletog. However, that spirit is threatened when all the dragons, 
except Toothless who needs Hiccup to help him, suddenly fly away for some reason.


Jay Baruchel	... 	Hiccup Horrendous Haddock III (voice)
Gerard Butler	... 	Stoick the Vast (voice)
Craig Ferguson	... 	Gobber the Belch (voice)
America Ferrera	... 	Astrid Hofferson (voice)
Jonah Hill	... 	Snotlout (voice)



[img]http://img198.imageshack.us/img198/6894/81474437.png[/img]
[img]http://img403.imageshack.us/img403/8716/drdddddrrrrr.png[/img]
[img]http://img202.imageshack.us/img202/3174/drddddrrrr.png[/img]
[img]http://img189.imageshack.us/img189/1126/drdddrrr.png[/img]
[img]http://img819.imageshack.us/img819/1434/drddrr.png[/img]
[img]http://img804.imageshack.us/img804/3994/drdr.png[/img]




Greetz

ViSiON,SPK,SceneLovers,SiC,SANTi,3LT0N,YanKeeS,MAGNET,THC,T0XiC,LKRG,Feel-Free,FLAWL3SS,
WBZ,BHRG,26K,NOVA,D2U,Rapeseed,SAFC,goldadvance,KaN1vE,Unevano,Pinnz,Wayne
Mr Hive,and most P2P groups
Great Work Guys :D

LOOKING FOR ANYTHING YOU WANT TO LOOK AND SOUND BETTER

CM8@hushmail.com